# xmcd
#
# Track frame offsets: 
#        150
#        14928
#        29860
#        44388
#        62757
#        83309
#        94772
#        111306
#        125862
#        145715
#        163070
#        182290
#        200924
#
# Disc length: 2991 seconds
#
# Revision: 0
# Processed by: cddbd v1.5.2PL0 Copyright (c) Steve Scherf et al.
# Submitted via: ExactAudioCopy v0.99pb5
#
DISCID=bd0bad0d
DTITLE=Rebecca Henricks - Stagecoach Raoad
DYEAR=2004
DGENRE=Country
TTITLE0=Stagecoach Road
TTITLE1=Glad Twice
TTITLE2=He´ll Cheat You Right
TTITLE3=I Am From Missouri
TTITLE4=I´m Going Home
TTITLE5=He´s One Lucky Man
TTITLE6=Big John
TTITLE7=I Wasn´t Lonely ´Til I Met You
TTITLE8=Waiting On Me
TTITLE9=Dance With Me
TTITLE10=A Heart At Peace
TTITLE11=America, The Beautiful
TTITLE12=Over The Rainbow
EXTD=
EXTT0=
EXTT1=
EXTT2=
EXTT3=
EXTT4=
EXTT5=
EXTT6=
EXTT7=
EXTT8=
EXTT9=
EXTT10=
EXTT11=
EXTT12=
PLAYORDER=
